DataType=double
version=3
OpenSimVersion=4.5
endheader
time	pelvis_tilt	pelvis_list	pelvis_rotation	pelvis_tx	pelvis_ty	pelvis_tz	hip_flexion_r	hip_adduction_r	hip_rotation_r	knee_angle_r	knee_frontal_r	knee_adduction_r	knee_angle_r_beta	ankle_angle_r	subtalar_angle_r	mtp_angle_r	hip_flexion_l	hip_adduction_l	hip_rotation_l	knee_angle_l	knee_frontal_l	knee_adduction_l	knee_angle_l_beta	ankle_angle_l	subtalar_angle_l	mtp_angle_l	lumbar_extension	lumbar_bending	lumbar_rotation	arm_flex_r	arm_add_r	arm_rot_r	elbow_flex_r	pro_sup_r	wrist_flex_r	wrist_dev_r	arm_flex_l	arm_add_l	arm_rot_l	elbow_flex_l	pro_sup_l	wrist_flex_l	wrist_dev_l
2.495	-0.1110086454345571	-0.03094295214332465	0.03566864928433004	0.8254014158925028	0.967146811479449	0.5103094677702165	0.2642176803053533	0.05466244057141623	0.0793819670410298	0.3264846545858384	0	0	0.3264846545858384	0.1341522982248634	-0.06228462280007829	-0.1399936363780696	0.4785436258618345	-0.04540894551346249	0.08435543948290039	1.212025143453155	0	0	1.212025143453155	-0.01821550072822987	-0.1091155031399457	-0.2490098756541284	-0.07224680104643541	0.03216680810271279	0.002617510113299097	-0.04106750493506933	-0.2905880334199999	-0.1024991941609802	0.7679730305238767	1.57079633	0	0	-0.06900832422271511	-0.3366789845477495	0.1216212346252748	0.8530954036771777	1.57079633	0	0
2.5	-0.1129234780806011	-0.03031574665361849	0.03492491091835434	0.8249162928285209	0.9676858167764857	0.5103960387184221	0.2564774734029425	0.05446348141454945	0.08132727070444644	0.3198700085998152	0	0	0.3198700085998152	0.1349722684690267	-0.062009386915945	-0.1405950495249294	0.4899092975084248	-0.04432510249117449	0.08237449408254621	1.200322356097384	0	0	1.200322356097384	-0.006182650882800372	-0.1088215168559764	-0.253384581162004	-0.07065389333078016	0.03051030441071819	0.002458039952396735	-0.03609225545132813	-0.2918816703844826	-0.1024009558126972	0.7765718320664273	1.57079633	0	0	-0.07371644589087721	-0.3348807791081831	0.1234617532371872	0.8402161250242518	1.57079633	0	0
2.505	-0.1147672344881048	-0.02981310404551706	0.0340984971479191	0.8244342658475354	0.9681842050677245	0.5104873846553828	0.2487406312814194	0.05440119710295345	0.08334099053159369	0.313367974761166	0	0	0.313367974761166	0.1356928759773415	-0.06183118735747282	-0.1413647481140961	0.5007148605084922	-0.04365618350639457	0.08005742471817823	1.187131405101078	0	0	1.187131405101078	0.004815107522675097	-0.109022510492317	-0.2576583836458976	-0.06912264012352747	0.0290330698173232	0.002326334643196402	-0.03119145088813669	-0.293222784219925	-0.1021745685601368	0.7853570139190468	1.57079633	0	0	-0.07853750205817542	-0.3330932054283325	0.1252701832699166	0.8274698587988932	1.57079633	0	0
2.51	-0.1165288362908452	-0.02943866583059655	0.03318915069530111	0.8239559580013739	0.9686409471913623	0.510583185837056	0.2409989862862345	0.05448030501955026	0.08542939907072541	0.3069884605321552	0	0	0.3069884605321552	0.1363350939101341	-0.06174921393633371	-0.1423003605047332	0.5109417610333602	-0.04340117929567134	0.07743572578709537	1.17247281083938	0	0	1.17247281083938	0.01472364956109919	-0.1096970251489699	-0.261709447445813	-0.06766838138193088	0.02774231742540904	0.002224207893137785	-0.02635964492665729	-0.2946138079720965	-0.1018145463150756	0.7943164860768933	1.57079633	0	0	-0.08347018139561965	-0.331310776646853	0.1270390440581566	0.8148895014897248	1.57079633	0	0
2.515	-0.1181985819288888	-0.02919563463517475	0.03219710831297903	0.8234818754896039	0.9690551754442344	0.5106827185244162	0.233244458921398	0.05470398102993107	0.08759596877183408	0.3007393763779873	0	0	0.3007393763779873	0.1369184114033906	-0.0617587874158239	-0.1434015333242269	0.5205736153425391	-0.04355483170075979	0.0745424942828596	1.156367595228699	0	0	1.156367595228699	0.02350995626810858	-0.1108108231508231	-0.2654338371729842	-0.0663051677249689	0.02664501611083583	0.002152838493484506	-0.02159123384671782	-0.2960572191228746	-0.1013171456625482	0.8034364129430502	1.57079633	0	0	-0.08851231278274006	-0.3295276009085613	0.1287605756430268	0.802508094821028	1.57079633	0	0
2.52	-0.1197682941152342	-0.02908692631656293	0.03112321981940081	0.8230124249538416	0.9694261640531363	0.5107848744055533	0.2254693930557428	0.05507401065304959	0.08984125385290166	0.2946269771132272	0	0	0.2946269771132272	0.1374605276244446	-0.0618516604891157	-0.1446694014236011	0.5295966678252445	-0.04410804074583824	0.07141198977904238	1.138838061881635	0	0	1.138838061881635	0.03116165671733008	-0.1123179043028638	-0.2687461200374447	-0.06504546536231996	0.02574800460619227	0.002112774082742437	-0.016880716289472	-0.297555511861654	-0.1006804100507089	0.8127013388077752	1.57079633	0	0	-0.09366088819099952	-0.3277374552469449	0.1304268173437563	0.7903585177544986	1.57079633	0	0
2.525	-0.1212314440924985	-0.02911529184152357	0.02996904739946544	0.8225479315744637	0.9697533114839296	0.5108881895802946	0.2176668684099255	0.05559094574355793	0.09216287537329557	0.2886561825571742	0	0	0.2886561825571742	0.1379771098124454	-0.06201639023256075	-0.1461059873290322	0.5380002382854441	-0.04504828878657288	0.06807921181285465	1.119908667866456	0	0	1.119908667866456	0.03768625591629746	-0.1141617255045878	-0.2715794666234319	-0.06389988894832498	0.02505805846395966	0.002103952481645576	-0.01222293967323527	-0.2991111451621452	-0.09990419408871004	0.8220943374208987	1.57079633	0	0	-0.09891210427179774	-0.3259338828423754	0.1320297136407401	0.778473167677499	1.57079633	0	0
2.53	-0.1225832490498135	-0.02928340483330576	0.02873694265674035	0.8220886573533385	0.9700361251156248	0.51099088211829	0.2098309831355601	0.05625426024975493	0.09455560436334916	0.2828308722608732	0	0	0.2828308722608732	0.1384816179955382	-0.0622387675562187	-0.1477135597618606	0.5457771417659623	-0.04636007008334965	0.06457949883903318	1.099606958549669	0	0	1.099606958549669	0.04311008010363524	-0.1162765880886505	-0.273885293056844	-0.06287697141533168	0.0245819082095425	0.002125735899956642	-0.007613325011637764	-0.3007264679133957	-0.09899016700867908	0.8315971800774502	1.57079633	0	0	-0.104261420618331	-0.3241103121936331	0.1335612425500719	0.7668836404122862	1.57079633	0	0
2.535	-0.1238207398439426	-0.02959391218286329	0.0274301000071883	0.8216348187649065	0.9702742086520998	0.5110908968675609	0.2019571008767601	0.05706249890113008	0.09701153433817547	0.2771541507550074	0	0	0.2771541507550074	0.1389851977183519	-0.0625022880236714	-0.1494939822173013	0.5529240656469243	-0.04802531504280226	0.06094815224607622	1.077964535567448	0	0	1.077964535567448	0.04747697213763213	-0.1185891566107081	-0.2756324971544461	-0.06198297975479655	0.0243262090978961	0.002176954167965318	-0.003048062268307401	-0.3024036250653536	-0.09794179458145388	0.8411905159282427	1.57079633	0	0	-0.1097036307771962	-0.3222601953214174	0.1350135603554647	0.7556204198614402	1.57079633	0	0
2.54	-0.1249427964945346	-0.03004944624604185	0.02605258570030989	0.8211866029223082	0.970467252577743	0.5111859559880758	0.1940420573568424	0.05801341292719715	0.09952033203982943	0.2716285808131612	0	0	0.2716285808131612	0.1394966406372635	-0.0627886478532311	-0.151448082966932	0.559441889532267	-0.05002379939347791	0.05722008775991023	1.055018026717188	0	0	1.055018026717188	0.05084676986565251	-0.1210200731449067	-0.2768063483399422	-0.06122178532893809	0.02429746438433383	0.002255954680318018	0.001475730259680508	-0.3041444508119203	-0.0967642985433822	0.8508540595677846	1.57079633	0	0	-0.1152329402912862	-0.3203771607827886	0.1363791559276582	0.7447125852922862	1.57079633	0	0
2.545	-0.1259501490389726	-0.03065259839062458	0.02460934225213209	0.820744181558514	0.9706150278911924	0.511273613634602	0.1860843217454685	0.05910407765358999	0.1020695534956677	0.2662563831246068	0	0	0.2662563831246068	0.140022411551206	-0.06307824898954821	-0.1535750772259486	0.5653359340891122	-0.05233353006275876	0.05342951550286329	1.030810026066896	0	0	1.030810026066896	0.05329360016128618	-0.1234856321171584	-0.2774070958640881	-0.0605947960548382	0.02450190520215792	0.00236065824783671	0.005959886646026188	-0.3059503556356838	-0.09546459228374665	0.860566782965084	1.57079633	0	0	-0.1208430450457582	-0.3184551763413971	0.137651007767744	0.7341875396961222	1.57079633	0	0
2.55	-0.1268453417190919	-0.03140585534085753	0.02310616859327847	0.8203077224161642	0.9707173831882996	0.5113513132801562	0.1780841086113628	0.06033098832843217	0.1046450111003827	0.2610396019158145	0	0	0.2610396019158145	0.1405667394735937	-0.06335069781491426	-0.1558720706716515	0.5706161263542067	-0.05493110163416449	0.04960964947462338	1.005389973289505	0	0	1.005389973289505	0.05490402100725486	-0.1258994821362384	-0.2774483622558217	-0.06010095533657529	0.02494533134735811	0.002488620606000222	0.01040511543363223	-0.3078222134673842	-0.09405119173171508	0.8703071095446218	1.57079633	0	0	-0.1265272037838151	-0.3164887158165137	0.1388227370600465	0.7240707603713994	1.57079633	0	0
2.555	-0.1276326592503872	-0.03231150141682428	0.02154967668420873	0.8198773980127242	0.9707742449752886	0.5114164462921508	0.1700434371513478	0.06169013218074663	0.1072311765875077	0.2559802370591054	0	0	0.2559802370591054	0.1411317694166589	-0.06358528324151658	-0.1583336710689065	0.5752970710006999	-0.05779201947541529	0.04579244688006726	0.9788149426845314	0	0	0.9788149426845314	0.05577504340410026	-0.1281743232243102	-0.2769553890518699	-0.05973680925589907	0.02563291834145447	0.002637098738248782	0.01481096186582739	-0.3097602538133521	-0.09253410099006948	0.8800531079374148	1.57079633	0	0	-0.1322783007363635	-0.3144729246216892	0.1398887503312532	0.7143855731320945	1.57079633	0	0
2.56	-0.1283180146692092	-0.03337149063224359	0.01994722553872635	0.8194533921059517	0.9707856210112064	0.5114664104827943	0.1619661350067001	0.06317703561514869	0.1098116047555503	0.2510803435971123	0	0	0.2510803435971123	0.1417177703184568	-0.06376142141807614	-0.1609517314906355	0.5793980188780645	-0.06089098722500855	0.04200837687121643	0.9511503138146153	0	0	0.9511503138146153	0.056012063670228	-0.1302235704556207	-0.2759631998265412	-0.0594966404316831	0.02656899670235369	0.002803120324838772	0.0191758069735757	-0.3117639624149086	-0.09092467268928511	0.8897826833562783	1.57079633	0	0	-0.1380888964803091	-0.312403778357977	0.1408443658680771	0.7051529513415021	1.57079633	0	0
2.565	-0.128908798639678	-0.03458729279942663	0.01830683367238902	0.819035904403711	0.9707516065101562	0.5114986674106011	0.153857784291464	0.06478678566592221	0.1123693633746526	0.2463420997541066	0	0	0.2463420997541066	0.142323393105359	-0.06385905596134692	-0.1637152445641961	0.5829427256923221	-0.06420215727000453	0.03828621708716799	0.9224702973294296	0	0	0.9224702973294296	0.05572673496762873	-0.1319629581952684	-0.2745147415930385	-0.05937266511135673	0.02775680960497227	0.002983554607810189	0.02349689882812686	-0.313831993465396	-0.08923544311271756	0.8994737661056676	1.57079633	0	0	-0.1439512660326726	-0.3102782285738654	0.1416859188334305	0.6963913389376178	1.57079633	0	0
2.57	-0.1294136905736716	-0.03595971824694061	0.01663707141392167	0.8186251540834474	0.9706723930225531	0.5115107972090029	0.1457256083892993	0.06651402537055476	0.1148874550873215	0.2417678451538303	0	0	0.2417678451538303	0.1429459716123847	-0.06385900449265315	-0.1666104024069097	0.5859591961167017	-0.06769934379275717	0.034652875903258	0.892858292344983	0	0	0.892858292344983	0.0550348051723468	-0.1333120625157891	-0.2726590600958821	-0.05935528905132958	0.02919825582242679	0.003175183854606056	0.02777041048804851	-0.3159620964237119	-0.08747994252106796	0.9091044977864147	1.57079633	0	0	-0.1498574230472042	-0.3080943299484156	0.1424108409101711	0.6881164948183459	1.57079633	0	0
2.575	-0.1298424334258411	-0.03748872708054301	0.01494693553328786	0.818221382596519	0.9705482796297163	0.5115005496983052	0.1375783005771445	0.06835292422336142	0.1173492170256288	0.2373600921444489	0	0	0.2373600921444489	0.1435818580383798	-0.06374324444214237	-0.1696208315521413	0.5884793131226976	-0.07135619936406019	0.0311332391627481	0.8624070561642961	0	0	0.8624070561642961	0.05405394692462012	-0.1341957225969792	-0.270449557707957	-0.05943341598871647	0.03089362639043659	0.003374775318848117	0.03199151909432135	-0.3181510602905636	-0.08567248252778976	0.9186534148582458	1.57079633	0	0	-0.1557991295002992	-0.3058513440620726	0.1430177112375139	0.6803413568853334	1.57079633	0	0
